<svg width="24" height="24" viewBox="0 0 24 24" fill="none" xmlns="http://www.w3.org/2000/svg">
<path fill-rule="evenodd" clip-rule="evenodd" d="M21.986 21.9858C22.5878 21.3822 23.0604 20.6566 23.3687 19.8609C23.664 19.0966 23.8671 18.2252 23.9262 16.9477C23.9852 15.6683 24 15.2585 24 12C24 8.74154 23.9852 8.33169 23.9262 7.05231C23.8671 5.77477 23.664 4.90338 23.3687 4.13908C23.0672 3.33848 22.5947 2.61331 21.9842 2.01415C21.385 1.40363 20.6599 0.931111 19.8594 0.629538C19.0951 0.334154 18.2238 0.131077 16.9464 0.0720001C15.6671 0.0129231 15.2573 0 11.9991 0C8.74087 0 8.33105 0.012923 7.05177 0.0738461C5.77433 0.129231 4.90301 0.332308 4.13876 0.629538C3.33863 0.9318 2.61367 1.40422 2.014 2.01415C1.40412 2.61387 0.931728 3.33888 0.62949 4.13908C0.334128 4.90338 0.131067 5.77477 0.0719945 7.05231C0.0129221 8.33169 0 8.74154 0 12C0 15.2585 0.012922 15.6683 0.0738404 16.9477C0.129221 18.2252 0.332282 19.0966 0.62949 19.8609C0.932236 20.6622 1.40482 21.3858 2.014 21.9858C2.61395 22.5951 3.33944 23.0677 4.13876 23.3705C4.90301 23.6658 5.77433 23.8689 7.05177 23.928C8.33105 23.9852 8.74087 24 11.9991 24C15.2573 24 15.6671 23.9852 16.9464 23.9262C18.2238 23.8708 19.0951 23.6677 19.8594 23.3705C20.6564 23.062 21.3819 22.5904 21.986 21.9858ZM1.84601 10.5877V13.4123C1.84232 14.928 1.84232 15.3212 1.88293 16.1815C1.93093 17.2634 1.99 18.0572 2.17091 18.6554C2.34444 19.2314 2.53827 19.8185 3.17329 20.5237C3.80832 21.2308 4.41935 21.5502 5.19837 21.7865C5.97923 22.0209 6.95946 22.0708 7.81048 22.1095C8.77409 22.1538 9.15806 22.1538 11.1813 22.1538H13.3651C14.9195 22.1557 15.3108 22.1575 16.1821 22.1169C17.2621 22.0671 18.0558 22.008 18.6558 21.8289C19.2299 21.6554 19.8169 21.4597 20.5221 20.8265C21.2291 20.1914 21.5485 19.5785 21.7848 18.7994C22.0192 18.0203 22.0709 17.04 22.1097 16.1889C22.1521 15.2252 22.1521 14.8431 22.1521 12.8252V11.1822C22.1521 9.15877 22.1521 8.77662 22.1097 7.81108C22.0709 6.96 22.0192 5.97969 21.7848 5.20062C21.5503 4.41969 21.231 3.80862 20.5221 3.17354C19.8151 2.53846 19.2299 2.34462 18.6558 2.17108C18.0558 1.992 17.2621 1.93108 16.1821 1.88308C15.2437 1.84451 14.3043 1.8322 13.3651 1.84615H11.1813C9.15806 1.84615 8.77409 1.84615 7.81048 1.88862C6.95946 1.92738 5.97923 1.97908 5.19837 2.21354C4.41935 2.44985 3.80832 2.76923 3.17329 3.47631C2.53827 4.18338 2.34259 4.76862 2.17091 5.34462C1.99 5.94277 1.93093 6.73662 1.88293 7.81846C1.84232 8.67877 1.84232 9.072 1.84601 10.5877ZM11.9991 7.84615C10.8975 7.84615 9.84103 8.28379 9.06209 9.06279C8.28315 9.84178 7.84555 10.8983 7.84555 12C7.84555 13.1017 8.28315 14.1582 9.06209 14.9372C9.84103 15.7162 10.8975 16.1538 11.9991 16.1538C13.1007 16.1538 14.1571 15.7162 14.9361 14.9372C15.715 14.1582 16.1526 13.1017 16.1526 12C16.1526 10.8983 15.715 9.84178 14.9361 9.06279C14.1571 8.28379 13.1007 7.84615 11.9991 7.84615ZM5.99954 12C5.99954 10.4087 6.63163 8.88258 7.75676 7.75736C8.88189 6.63214 10.4079 6 11.9991 6C13.5903 6 15.1163 6.63214 16.2414 7.75736C17.3665 8.88258 17.9986 10.4087 17.9986 12C17.9986 13.5913 17.3665 15.1174 16.2414 16.2426C15.1163 17.3679 13.5903 18 11.9991 18C10.4079 18 8.88189 17.3679 7.75676 16.2426C6.63163 15.1174 5.99954 13.5913 5.99954 12ZM18.4047 6.97846C18.7719 6.97846 19.1241 6.83258 19.3837 6.57292C19.6434 6.31325 19.7892 5.96107 19.7892 5.59385C19.7892 5.22662 19.6434 4.87444 19.3837 4.61478C19.1241 4.35511 18.7719 4.20923 18.4047 4.20923C18.0375 4.20923 17.6854 4.35511 17.4257 4.61478C17.1661 4.87444 17.0202 5.22662 17.0202 5.59385C17.0202 5.96107 17.1661 6.31325 17.4257 6.57292C17.6854 6.83258 18.0375 6.97846 18.4047 6.97846Z" fill="white"/>
</svg>
