<svg width="26" height="23" viewBox="0 0 26 23" fill="none" xmlns="http://www.w3.org/2000/svg">
<path d="M6.202 2.37308C4.2172 0.934281 1 -0.179319 1 3.36428C1 4.07228 1.42 9.30788 1.6672 10.1575C2.5228 13.1131 5.4232 13.4575 8.2 13.0003C3.346 13.7983 2.3332 16.8499 4.9996 19.4923C6.2356 20.7139 7.2952 21.4003 8.2 21.4003C10.6 21.4003 11.9608 18.0775 12.4 17.2003C12.7996 16.3999 13 15.7999 13 15.4003C13 15.7999 13.2004 16.3999 13.6 17.2003C14.0392 18.0775 15.4 21.4003 17.8 21.4003C18.7048 21.4003 19.7644 20.7151 21.0004 19.4923C23.6668 16.8487 22.654 13.7971 17.8 13.0003C20.5768 13.4563 23.476 13.1131 24.3328 10.1575C24.58 9.30788 25 4.07108 25 3.36428C25 -0.179319 21.784 0.934281 19.798 2.37308C17.0464 4.36748 14.086 8.43068 13 10.6003C11.914 8.43068 8.9536 4.36748 6.202 2.37308Z" stroke="white" stroke-width="2" stroke-linecap="round" stroke-linejoin="round"/>
</svg>
