<svg width="26" height="26" viewBox="0 0 26 26" fill="none" xmlns="http://www.w3.org/2000/svg">
<path d="M6.23438 25V26H7.23438V25H6.23438ZM1.13379 25H0.133789V26H1.13379V25ZM1.13379 8.25781V7.25781H0.133789V8.25781H1.13379ZM6.23438 8.25781H7.23438V7.25781H6.23438V8.25781ZM19.127 7.74121L19.127 6.74121H19.127V7.74121ZM25 24.5303V25.5303H26V24.5303H25ZM19.8984 24.5303H18.8984V25.5303H19.8984V24.5303ZM17.3135 11.877V10.877H17.3134L17.3135 11.877ZM14.6973 13.7871L15.6228 14.1661L15.6273 14.1545L14.6973 13.7871ZM14.5273 15.0625L13.5273 15.0625V15.0625H14.5273ZM14.5273 24.5273V25.5273H15.5273V24.5273H14.5273ZM9.42285 24.5273H8.42285V25.5273H9.42285V24.5273ZM9.42285 13.3486H10.4229V13.3486L9.42285 13.3486ZM9.28906 8.11133V7.11133H8.24173L8.29013 8.15754L9.28906 8.11133ZM13.7217 8.11133L14.7165 8.0095L14.6245 7.11133H13.7217V8.11133ZM13.9551 10.3916L12.9603 10.4934L13.0522 11.3916H13.9551V10.3916ZM14.0576 10.3916V11.3916H14.6107L14.9046 10.9232L14.0576 10.3916ZM3.71875 1L3.71885 0H3.71875V1ZM6.40234 3.59863L7.40234 3.59864V3.58792L7.40211 3.57721L6.40234 3.59863ZM3.65234 6.20215L3.65222 7.20215H3.65234V6.20215ZM1 3.59863H0V3.59864L1 3.59863ZM6.23438 25V24H1.13379V25V26H6.23438V25ZM1.13379 25H2.13379V8.25781H1.13379H0.133789V25H1.13379ZM1.13379 8.25781V9.25781H6.23438V8.25781V7.25781H1.13379V8.25781ZM6.23438 8.25781H5.23438V25H6.23438H7.23438V8.25781H6.23438ZM19.127 7.74121L19.1269 8.74121C20.5742 8.74122 21.7519 9.21941 22.5784 10.1387C23.415 11.0694 24 12.5735 24 14.8242H25H26C26 12.2414 25.3265 10.2041 24.0657 8.80159C22.7947 7.38776 21.0359 6.74122 19.127 6.74121L19.127 7.74121ZM25 14.8242H24V24.5303H25H26V14.8242H25ZM25 24.5303V23.5303H19.8984V24.5303V25.5303H25V24.5303ZM19.8984 24.5303H20.8984V15.4326H19.8984H18.8984V24.5303H19.8984ZM19.8984 15.4326H20.8984C20.8984 14.2861 20.7031 13.1669 20.1301 12.3064C19.5129 11.3796 18.5403 10.877 17.3135 10.877V11.877V12.877C17.9314 12.877 18.2512 13.0933 18.4654 13.4149C18.7237 13.8028 18.8984 14.4615 18.8984 15.4326H19.8984ZM17.3135 11.877L17.3134 10.877C15.3471 10.8771 14.2256 12.2592 13.7672 13.4197L14.6973 13.7871L15.6273 14.1545C15.9089 13.4416 16.4619 12.877 17.3135 12.877L17.3135 11.877ZM14.6973 13.7871L13.7718 13.4082C13.5538 13.9406 13.5273 14.5906 13.5273 15.0625L14.5273 15.0625L15.5273 15.0625C15.5273 14.595 15.5678 14.3001 15.6227 14.166L14.6973 13.7871ZM14.5273 15.0625H13.5273V24.5273H14.5273H15.5273V15.0625H14.5273ZM14.5273 24.5273V23.5273H9.42285V24.5273V25.5273H14.5273V24.5273ZM9.42285 24.5273H10.4229V13.3486H9.42285H8.42285V24.5273H9.42285ZM9.42285 13.3486L10.4229 13.3486C10.4228 11.2775 10.3565 9.54685 10.288 8.06511L9.28906 8.11133L8.29013 8.15754C8.35802 9.62507 8.42284 11.3213 8.42285 13.3486L9.42285 13.3486ZM9.28906 8.11133V9.11133H13.7217V8.11133V7.11133H9.28906V8.11133ZM13.7217 8.11133L12.7269 8.21315L12.9603 10.4934L13.9551 10.3916L14.9499 10.2898L14.7165 8.0095L13.7217 8.11133ZM13.9551 10.3916V11.3916H14.0576V10.3916V9.3916H13.9551V10.3916ZM14.0576 10.3916L14.9046 10.9232C15.4421 10.0667 16.801 8.74121 19.127 8.74121V7.74121V6.74121C15.948 6.74121 14.0169 8.57527 13.2106 9.86005L14.0576 10.3916ZM3.71875 1L3.71865 2C4.30249 2.00006 4.70042 2.19486 4.95499 2.45199C5.21492 2.71455 5.39163 3.10961 5.40257 3.62006L6.40234 3.59863L7.40211 3.57721C7.38157 2.61851 7.03902 1.71434 6.3763 1.04491C5.7082 0.370059 4.78008 0.000110149 3.71885 0L3.71875 1ZM6.40234 3.59863L5.40234 3.59863C5.40234 4.07432 5.23367 4.46293 4.96387 4.73117C4.69754 4.99596 4.27309 5.20215 3.65234 5.20215V6.20215V7.20215C4.74248 7.20215 5.69303 6.82649 6.37398 6.14947C7.05146 5.4759 7.40234 4.56276 7.40234 3.59864L6.40234 3.59863ZM3.65234 6.20215L3.65247 5.20215C2.61211 5.20201 2 4.50459 2 3.59863L1 3.59863L0 3.59864C7.51019e-06 5.57203 1.47071 7.20187 3.65222 7.20215L3.65234 6.20215ZM1 3.59863H2C2 3.11347 2.1736 2.72674 2.44344 2.46146C2.7121 2.19735 3.13146 2 3.71875 2V1V0C2.66074 0 1.72074 0.367339 1.04135 1.03523C0.363134 1.70196 0 2.61454 0 3.59863H1Z" fill="white"/>
</svg>
